<svg width="55" height="55" viewBox="0 0 55 55" fill="none" xmlns="http://www.w3.org/2000/svg">
<g clip-path="url(#clip0_70_1106)">
<path d="M27.4997 4.58337C40.1565 4.58337 50.4163 14.8432 50.4163 27.5C50.4163 40.1569 40.1565 50.4167 27.4997 50.4167C14.8428 50.4167 4.58301 40.1569 4.58301 27.5C4.58301 14.8432 14.8428 4.58337 27.4997 4.58337ZM27.4997 9.16671C22.6374 9.16671 17.9742 11.0982 14.536 14.5364C11.0979 17.9746 9.16634 22.6377 9.16634 27.5C9.16634 32.3623 11.0979 37.0255 14.536 40.4637C17.9742 43.9018 22.6374 45.8334 27.4997 45.8334C32.362 45.8334 37.0251 43.9018 40.4633 40.4637C43.9015 37.0255 45.833 32.3623 45.833 27.5C45.833 22.6377 43.9015 17.9746 40.4633 14.5364C37.0251 11.0982 32.362 9.16671 27.4997 9.16671ZM27.4997 36.6667C28.1075 36.6667 28.6904 36.9081 29.1201 37.3379C29.5499 37.7677 29.7913 38.3506 29.7913 38.9584C29.7913 39.5662 29.5499 40.1491 29.1201 40.5788C28.6904 41.0086 28.1075 41.25 27.4997 41.25C26.8919 41.25 26.309 41.0086 25.8792 40.5788C25.4494 40.1491 25.208 39.5662 25.208 38.9584C25.208 38.3506 25.4494 37.7677 25.8792 37.3379C26.309 36.9081 26.8919 36.6667 27.4997 36.6667ZM27.4997 14.8959C29.4299 14.8959 31.2999 15.5681 32.7883 16.797C34.2768 18.0259 35.2909 19.7348 35.6564 21.6301C36.0219 23.5254 35.716 25.4888 34.7913 27.1831C33.8665 28.8774 32.3806 30.1968 30.5888 30.9146C30.3248 31.0148 30.0861 31.1721 29.8899 31.3752C29.789 31.4898 29.773 31.6365 29.7753 31.7877L29.7913 32.0834C29.7907 32.6675 29.567 33.2293 29.1661 33.654C28.7651 34.0787 28.2171 34.3343 27.634 34.3686C27.0509 34.4028 26.4767 34.2131 26.0288 33.8382C25.5809 33.4633 25.293 32.9315 25.224 32.3515L25.208 32.0834V31.5105C25.208 28.8682 27.3393 27.2823 28.8838 26.6613C29.5125 26.4103 30.0609 25.9927 30.4701 25.4535C30.8793 24.9144 31.134 24.2739 31.2067 23.6009C31.2794 22.9279 31.1674 22.2478 30.8827 21.6337C30.598 21.0196 30.1514 20.4946 29.5909 20.1151C29.0304 19.7356 28.3771 19.516 27.7011 19.4798C27.0252 19.4436 26.3522 19.5923 25.7543 19.9097C25.1565 20.2272 24.6564 20.7015 24.3078 21.2818C23.9592 21.862 23.7753 22.5263 23.7757 23.2032C23.7757 23.811 23.5343 24.3938 23.1045 24.8236C22.6747 25.2534 22.0918 25.4948 21.484 25.4948C20.8763 25.4948 20.2934 25.2534 19.8636 24.8236C19.4338 24.3938 19.1924 23.811 19.1924 23.2032C19.1924 20.9999 20.0676 18.8869 21.6255 17.329C23.1835 15.7711 25.2964 14.8959 27.4997 14.8959Z" fill="#09244B"/>
</g>
<defs>
<clipPath id="clip0_70_1106">
<rect width="55" height="55" fill="white"/>
</clipPath>
</defs>
</svg>
